<svg xmlns="http://www.w3.org/2000/svg" viewBox="0 0 64 64">
  <rect width="64" height="64" rx="14" fill="#201914"/>
  <path d="M10 35 15 10l14 12h6l14-12 5 25c4 4 6 9 6 15 0 10-10 14-28 14S4 60 4 50c0-6 2-11 6-15Z" fill="#7a5f42"/>
  <path d="M17 31 19 18l9 8h8l9-8 2 13-9 7H26l-9-7Z" fill="#9a805b"/>
  <path d="M9 49c3 9 13 15 23 15s20-6 23-15c-5-4-13-7-23-7S14 45 9 49Z" fill="#f3eee6"/>
  <path d="M23 45c3 0 7 2 9 8 2-6 6-8 9-8 1 6-4 12-9 12s-10-6-9-12Z" fill="#fffaf3"/>
  <path d="M32 22v15M27 21l3 13M37 21l-3 13" stroke="#241a13" stroke-width="3" stroke-linecap="round"/>
  <path d="M18 28l8 5M46 28l-8 5M15 38l9-2M49 38l-9-2M14 44l8-3M50 44l-8-3" stroke="#2a1d15" stroke-width="3" stroke-linecap="round"/>
  <path d="M16 39c3-5 11-5 14 0-3 4-11 4-14 0Z" fill="#dfeaa7"/>
  <path d="M34 39c3-5 11-5 14 0-3 4-11 4-14 0Z" fill="#dfeaa7"/>
  <ellipse cx="23" cy="39" rx="2.5" ry="4.5" fill="#080907"/>
  <ellipse cx="41" cy="39" rx="2.5" ry="4.5" fill="#080907"/>
  <path d="M30 48h4l2 2-4 4-4-4 2-2Z" fill="#c98677"/>
  <path d="M32 53v5M31 57c-3 0-6-1-8-3M33 57c3 0 6-1 8-3" stroke="#241a13" stroke-width="2.5" stroke-linecap="round" fill="none"/>
  <path d="M7 47h18M7 53h18M39 47h18M39 53h18" stroke="#fffaf3" stroke-width="2.25" stroke-linecap="round"/>
</svg>
